#!OML:ASF F:\VICON\USERDATA\INSTALL\rory3\rory3.ASF
:FULLY-SPECIFIED
:DEGREES
4574
root -0.288055 17.7306 -3.01267 -180.414 173.536 -181.188
lowerback 8.34385 -0.764601 -2.47645
upperback -1.78113 -1.28058 0.10999
thorax -6.49747 -0.531097 1.68474
lowerneck -27.0513 -2.65848 -10.2537
upperneck 23.6673 -0.478194 3.46687
head 12.3715 -0.68651 2.92979
rclavicle -2.09454e-014 3.57812e-015
rhumerus 16.9696 -59.0467 -2.53449
rradius 30.3568
rwrist 13.6248
rhand -40.5642 -0.22541
rfingers 7.12502
rthumb -13.5116 -29.7671
lclavicle -2.09454e-014 3.57812e-015
lhumerus 11.4374 57.9102 2.57716
lradius 26.3215
lwrist 2.29354
lhand -17.2512 41.2654
lfingers 7.12502
lthumb 8.99298 1151.05
rfemur -15.5644 -1.25984 13.4765
rtibia 29.2551
rfoot -13.9317 -8.70935
rtoes 4.03148
lfemur 2.29515 -5.37759 -14.749
ltibia 22.2698
lfoot -16.9046 6.19572
ltoes -25.7877
4575
root -0.337975 17.7365 -2.98263 -180.345 173.656 -181.136
lowerback 8.37375 -0.741931 -2.45404
upperback -1.7823 -1.24879 0.10962
thorax -6.51772 -0.516016 1.66804
lowerneck -26.9924 -2.66329 -10.153
upperneck 23.6281 -0.537436 3.47488
head 12.3485 -0.701215 2.90477
rclavicle -3.83592e-015 -2.78299e-015
rhumerus 15.1999 -58.8953 -1.90609
rradius 29.665
rwrist 13.2683
rhand -40.1441 -0.370957
rfingers 7.12502
rthumb -13.1067 -29.9391
lclavicle -3.83592e-015 -2.78299e-015
lhumerus 10.5228 58.4957 2.93841
lradius 25.7422
lwrist 2.25547
lhand -16.5859 41.4948
lfingers 7.12502
lthumb 9.63487 1151.25
rfemur -15.5337 -1.53047 13.5977
rtibia 29.1906
rfoot -13.7739 -8.33628
rtoes 3.49816
lfemur 2.27202 -5.51553 -14.6402
ltibia 22.3976
lfoot -16.7451 6.28645
ltoes -25.9879
4576
root -0.386956 17.7436 -2.95228 -180.271 173.841 -181.095
lowerback 8.39791 -0.739833 -2.44001
upperback -1.72973 -1.24177 0.150174
thorax -6.47553 -0.51339 1.70153
lowerneck -27.1295 -2.63834 -10.1398
upperneck 23.5655 -0.516491 3.55829
head 12.3471 -0.676484 2.93806
rclavicle 1.72935e-014 3.97569e-016
rhumerus 13.763 -58.8606 -1.56759
rradius 28.9858
rwrist 13.0316
rhand -39.9146 -0.760438
rfingers 7.12502
rthumb -12.8854 -30.3427
lclavicle 1.72935e-014 3.97569e-016
lhumerus 8.73706 58.5745 2.45216
lradius 25.3028
lwrist 2.56087
lhand -16.2586 41.6315
lfingers 7.12502
lthumb 9.95067 1151.38
rfemur -15.5241 -1.72178 13.7391
rtibia 29.105
rfoot -13.5635 -8.13229
rtoes 2.78101
lfemur 2.24069 -5.63542 -14.5278
ltibia 22.5237
lfoot -16.5224 6.38966
ltoes -26.3643
4577
root -0.438053 17.7557 -2.91985 -180.249 174.065 -181.142
lowerback 8.43196 -0.673621 -2.31267
upperback -1.64324 -1.13888 0.15671
thorax -6.41018 -0.469269 1.62234
lowerneck -27.101 -2.65003 -9.97098
upperneck 23.3206 -0.5983 3.52387
head 12.2497 -0.694748 2.87716
rclavicle 5.73137e-015 -5.96354e-015
rhumerus 11.9325 -58.9533 -0.893927
rradius 28.3804
rwrist 12.4862
rhand -39.389 -0.761554
rfingers 7.12502
rthumb -12.3787 -30.3751
lclavicle 5.73137e-015 -5.96354e-015
lhumerus 6.91422 57.911 1.88688
lradius 25.0021
lwrist 3.632
lhand -16.3058 41.8983
lfingers 7.12502
lthumb 9.90517 1151.65
rfemur -15.4791 -1.78726 13.9958
rtibia 29.0207
rfoot -13.3684 -8.02397
rtoes 2.28762
lfemur 2.2835 -5.68332 -14.298
ltibia 22.6253
lfoot -16.2456 6.40275
ltoes -26.5031
4578
root -0.491308 17.7678 -2.89112 -180.205 174.193 -181.232
lowerback 8.49471 -0.659418 -2.17858
upperback -1.59769 -1.10431 0.18991
thorax -6.4009 -0.457149 1.57758
lowerneck -27.0626 -2.64773 -9.72467
upperneck 23.119 -0.664462 3.3913
head 12.1662 -0.714431 2.76969
rclavicle -1.81577e-014 2.38542e-015
rhumerus 10.2717 -59.0806 -0.412142
rradius 27.838
rwrist 11.606
rhand -38.664 -0.52502
rfingers 7.12502
rthumb -11.6797 -30.1795
lclavicle -1.81577e-014 2.38542e-015
lhumerus 5.30795 57.5776 1.61769
lradius 24.7291
lwrist 4.15312
lhand -16.1878 42.2952
lfingers 7.12502
lthumb 10.0189 1152.04
rfemur -15.4317 -1.88756 14.3042
rtibia 28.9012
rfoot -13.2936 -7.91593
rtoes 1.94028
lfemur 2.27223 -5.78029 -14.0116
ltibia 22.747
lfoot -15.9277 6.48744
ltoes -26.9302
